<?xml version="1.0" encoding="UTF-8" standalone="no"?>
<!-- Created with Inkscape (http://www.inkscape.org/) -->

<svg
   width="550"
   height="104"
   viewBox="0 0 145.52084 27.516666"
   version="1.1"
   id="svg1"
   xml:space="preserve"
   sodipodi:docname="brand-horizontal-dark.svg"
   inkscape:version="1.4.3 (0d15f75, 2025-12-25)"
   xmlns:inkscape="http://www.inkscape.org/namespaces/inkscape"
   xmlns:sodipodi="http://sodipodi.sourceforge.net/DTD/sodipodi-0.dtd"
   xmlns:xlink="http://www.w3.org/1999/xlink"
   xmlns="http://www.w3.org/2000/svg"
   xmlns:svg="http://www.w3.org/2000/svg"><sodipodi:namedview
     id="namedview1"
     pagecolor="#ffffff"
     bordercolor="#000000"
     borderopacity="0.25"
     inkscape:showpageshadow="2"
     inkscape:pageopacity="0.0"
     inkscape:pagecheckerboard="0"
     inkscape:deskcolor="#d1d1d1"
     inkscape:document-units="px"
     inkscape:zoom="1.5290036"
     inkscape:cx="248.52787"
     inkscape:cy="132.4392"
     inkscape:window-width="1920"
     inkscape:window-height="991"
     inkscape:window-x="-9"
     inkscape:window-y="-9"
     inkscape:window-maximized="1"
     inkscape:current-layer="brand-horizontal-dark" /><defs
     id="defs1"><linearGradient
       id="linearGradient2"><stop
         style="stop-color:#00381d;stop-opacity:1;"
         offset="0"
         id="stop2" /><stop
         style="stop-color:#44ef61;stop-opacity:1;"
         offset="1"
         id="stop3" /></linearGradient><linearGradient
       xlink:href="#linearGradient2"
       id="linearGradient57"
       gradientUnits="userSpaceOnUse"
       gradientTransform="translate(-35.490566,79.013208)"
       x1="35.49057"
       y1="107.12546"
       x2="35.49057"
       y2="65.657547" /><linearGradient
       xlink:href="#linearGradient2"
       id="linearGradient62"
       gradientUnits="userSpaceOnUse"
       gradientTransform="translate(265.07856,-31.658012)"
       x1="35.49057"
       y1="107.12546"
       x2="35.49057"
       y2="65.657547" /><linearGradient
       inkscape:collect="always"
       xlink:href="#linearGradient2"
       id="linearGradient1"
       gradientUnits="userSpaceOnUse"
       gradientTransform="translate(265.07856,-31.658012)"
       x1="35.49057"
       y1="107.12546"
       x2="35.49057"
       y2="65.657547" /></defs><g
     id="brand"
     transform="translate(-27.346957,-172.96561)"><g
       id="brand-horizontal-dark"
       transform="translate(4.5626188,27.486766)"><g
         id="g1"
         transform="translate(-53.975,-31.485419)"><g
           id="g2-6"
           transform="matrix(0.65959276,0,0,0.65868278,-110.56037,154.73308)"><path
             id="path1-3-1"
             style="fill:#3bca51;fill-opacity:1;stroke:none;stroke-width:0.0486609;stroke-linecap:round;stroke-linejoin:round;paint-order:markers fill stroke"
             d="m 300.76817,33.75097 a 16.77511,16.77511 0 0 0 -16.7752,16.775203 16.77511,16.77511 0 0 0 1.92805,7.807793 h -0.004 c 0.0168,0.0293 0.0337,0.05887 0.0506,0.08837 0.056,0.09739 0.11915,0.199758 0.17673,0.298173 5.12824,0.195498 12.1867,-5.312676 16.20366,-11.921757 l -2.48615,-1.731677 10.57713,-4.669999 0.35037,12.281938 -3.85093,-2.682524 c -3.73923,5.971004 -12.50071,11.340469 -18.92908,11.540381 2.34145,3.488181 5.56093,7.5739 10.95902,13.128398 1.11858,1.15099 2.65406,1.14467 3.7791,0 5.38402,-5.4779 8.29549,-9.129349 11.33471,-13.981059 a 16.77511,16.77511 0 0 0 1.0325,-1.537891 c 0.18742,-0.31583 0.37708,-0.515346 0.56792,-0.845426 h -0.0496 a 16.77511,16.77511 0 0 0 1.91048,-7.77472 16.77511,16.77511 0 0 0 -16.77521,-16.775203 z" /><path
             id="path2-2-4"
             style="opacity:0.541267;fill:url(#linearGradient1);fill-opacity:1;stroke:none;stroke-width:0.0486609;stroke-linecap:round;stroke-linejoin:round;paint-order:markers fill stroke"
             d="m 300.76817,33.75097 a 16.77511,16.77511 0 0 0 -16.7752,16.775203 16.77511,16.77511 0 0 0 1.92805,7.807793 h -0.004 c 0.0168,0.0293 0.0337,0.05887 0.0506,0.08837 0.056,0.09739 0.11915,0.199758 0.17673,0.298173 5.12824,0.195498 12.1867,-5.312676 16.20366,-11.921757 l -2.48615,-1.731677 10.57713,-4.669999 0.35037,12.281938 -3.85093,-2.682524 c -3.73923,5.971004 -12.50071,11.340469 -18.92908,11.540381 2.34145,3.488191 5.5609,7.573872 10.95902,13.128398 1.11858,1.15099 2.65406,1.14467 3.7791,0 5.38402,-5.4779 8.29549,-9.129349 11.33471,-13.981059 a 16.77511,16.77511 0 0 0 1.0325,-1.537891 c 0.18742,-0.31583 0.37708,-0.515346 0.56792,-0.845426 h -0.0496 a 16.77511,16.77511 0 0 0 1.91048,-7.77472 16.77511,16.77511 0 0 0 -16.77521,-16.775203 z" /><path
             id="rect6-2-2"
             style="fill:#025a2e;fill-opacity:1;stroke:none;stroke-width:0.0287529;stroke-linecap:round;stroke-linejoin:round;paint-order:markers fill stroke"
             d="m 300.76817,42.98348 a 7.5427461,7.5427461 0 0 0 -7.54269,7.54269 7.5427461,7.5427461 0 0 0 1.60869,4.65605 c 2.84516,-2.16856 5.5447,-5.14381 7.51375,-8.38347 l -2.48615,-1.73167 3.59565,-1.5875 a 7.5427461,7.5427461 0 0 0 -2.68925,-0.4961 z m 6.17017,7.01301 c -0.19831,0.31667 -0.41066,0.63151 -0.63614,0.94413 v 19.97759 c 0.84965,-0.93537 1.62857,-1.82899 2.35645,-2.70371 V 51.19487 Z m -5.1909,5.64255 c -0.75297,0.60539 -1.54287,1.17996 -2.35644,1.71618 v 17.67696 c 0.73057,0.52724 1.57716,0.6317 2.35644,0.31729 z m -7.1546,4.2969 c -2.30603,0.97164 -4.61202,1.55806 -6.67298,1.60714 1.62247,2.40323 3.74415,5.14595 6.67298,8.43359 z" /><path
             id="path3-1-3"
             style="fill:#ffffff;stroke:none;stroke-width:0.0499999;stroke-linecap:round;stroke-linejoin:round;paint-order:markers fill stroke"
             d="m 310.4389,40.39708 -10.57713,4.67 2.48615,1.73167 c -4.01789,6.6106 -11.07874,12.11993 -16.20728,11.92176 0.21192,0.3621 0.4344,0.73147 0.6687,1.10898 0.34302,0.55268 0.71175,1.12291 1.11052,1.71359 6.43612,-0.15342 15.26223,-5.54841 19.01848,-11.54659 l 3.85093,2.68253 z" /></g><g
           id="g31"
           transform="translate(44.189754,24.367796)"><g
             id="text9"
             style="font-weight:600;font-size:13.4877px;line-height:1;font-family:Poppins;-inkscape-font-specification:'Poppins Semi-Bold';letter-spacing:-0.497097px;fill:#3bca51;stroke-width:0.159304;stroke-linecap:round;stroke-linejoin:round;paint-order:markers fill stroke"
             aria-label="Risco Zero"><path
               id="path109"
               style="stroke-width:0.159305"
               d="m 165.04392,167.92189 q 0,0.40464 -0.054,0.72834 h -5.46252 q 0.0674,0.80926 0.56648,1.26784 0.49905,0.45859 1.22738,0.45859 1.05205,0 1.49714,-0.90368 h 2.03664 q -0.3237,1.07902 -1.24087,1.78038 -0.91716,0.68787 -2.25244,0.68787 -1.07902,0 -1.94223,-0.47207 -0.84973,-0.48556 -1.33528,-1.36226 -0.47207,-0.8767 -0.47207,-2.02315 0,-1.15995 0.47207,-2.03665 0.47207,-0.8767 1.32179,-1.34877 0.84973,-0.47207 1.95572,-0.47207 1.06553,0 1.90176,0.45859 0.84973,0.45858 1.30831,1.3083 0.47207,0.83624 0.47207,1.92874 z m -1.95572,-0.5395 q -0.0135,-0.72834 -0.52602,-1.15995 -0.51253,-0.44509 -1.25435,-0.44509 -0.70136,0 -1.18692,0.43161 -0.47207,0.41811 -0.57997,1.17343 z m 4.72266,-1.87479 q 0.36417,-0.59346 0.94414,-0.93066 0.59346,-0.33719 1.34877,-0.33719 v 1.98269 h -0.49905 q -0.89019,0 -1.34877,0.41812 -0.44509,0.41812 -0.44509,1.45667 v 3.72261 h -1.88828 v -7.47219 h 1.88828 z m 6.38162,6.43363 q -1.07902,0 -1.94223,-0.47207 -0.86321,-0.48556 -1.36226,-1.36226 -0.48556,-0.8767 -0.48556,-2.02315 0,-1.14646 0.49905,-2.02316 0.51253,-0.8767 1.38923,-1.34877 0.8767,-0.48556 1.95572,-0.48556 1.07901,0 1.95571,0.48556 0.87671,0.47207 1.37575,1.34877 0.51253,0.8767 0.51253,2.02316 0,1.14645 -0.52602,2.02315 -0.51253,0.8767 -1.40272,1.36226 -0.8767,0.47207 -1.9692,0.47207 z m 0,-1.6455 q 0.51253,0 0.95762,-0.24278 0.45859,-0.25627 0.72834,-0.75531 0.26975,-0.49905 0.26975,-1.21389 0,-1.06553 -0.56648,-1.63202 -0.553,-0.57997 -1.36226,-0.57997 -0.80926,0 -1.36226,0.57997 -0.5395,0.56649 -0.5395,1.63202 0,1.06552 0.52602,1.6455 0.53951,0.56648 1.34877,0.56648 z m -21.95658,-0.23561 h 4.68265 v 1.75972 h -7.09854 v -1.61059 l 4.65283,-7.03889 h -4.65283 v -1.75972 h 7.09854 v 1.61059 z m -29.82298,-6.60265 q -0.49904,0 -0.83623,-0.31022 -0.32371,-0.32371 -0.32371,-0.79578 0,-0.47207 0.32371,-0.78228 0.33719,-0.32371 0.83623,-0.32371 0.49905,0 0.82275,0.32371 0.3372,0.31021 0.3372,0.78228 0,0.47207 -0.3372,0.79578 -0.3237,0.31022 -0.82275,0.31022 z m 0.93066,0.89018 v 7.47219 h -1.88828 v -7.47219 z m 4.22359,7.59358 q -0.91716,0 -1.6455,-0.32371 -0.72833,-0.33719 -1.15994,-0.90367 -0.41812,-0.56649 -0.45858,-1.25436 h 1.90176 q 0.054,0.43161 0.41812,0.71485 0.37766,0.28324 0.93065,0.28324 0.53951,0 0.83624,-0.2158 0.31022,-0.2158 0.31022,-0.553 0,-0.36417 -0.37766,-0.53951 -0.36416,-0.18882 -1.17343,-0.40463 -0.83623,-0.20231 -1.37574,-0.41811 -0.52602,-0.21581 -0.91717,-0.6609 -0.37765,-0.4451 -0.37765,-1.20041 0,-0.62043 0.35068,-1.13296 0.36417,-0.51254 1.02506,-0.80927 0.67439,-0.29673 1.57807,-0.29673 1.33528,0 2.13105,0.67439 0.79578,0.6609 0.8767,1.79386 h -1.80735 q -0.0405,-0.44509 -0.37766,-0.70136 -0.3237,-0.26975 -0.8767,-0.26975 -0.51253,0 -0.79577,0.18883 -0.26975,0.18882 -0.26975,0.52602 0,0.37765 0.37765,0.57997 0.37766,0.18883 1.17343,0.39114 0.80926,0.20232 1.33528,0.41812 0.52602,0.2158 0.90368,0.67439 0.39114,0.44509 0.40463,1.18691 0,0.64741 -0.36417,1.15995 -0.35068,0.51253 -1.02506,0.80926 -0.6609,0.28324 -1.55109,0.28324 z m 3.50875,-3.85748 q 0,-1.15995 0.47207,-2.02316 0.47207,-0.8767 1.30831,-1.34877 0.83624,-0.48556 1.91525,-0.48556 1.38924,0 2.29291,0.70136 0.91717,0.68788 1.22738,1.94223 h -2.03664 q -0.16185,-0.48555 -0.553,-0.75531 -0.37765,-0.28324 -0.94413,-0.28324 -0.80927,0 -1.28134,0.59346 -0.47207,0.57997 -0.47207,1.65899 0,1.06552 0.47207,1.65898 0.47207,0.57997 1.28134,0.57997 1.14645,0 1.49713,-1.02506 h 2.03664 q -0.31021,1.21389 -1.22738,1.92874 -0.91716,0.71485 -2.29291,0.71485 -1.07901,0 -1.91525,-0.47207 -0.83624,-0.48556 -1.30831,-1.34877 -0.47207,-0.8767 -0.47207,-2.03664 z m 11.42602,3.85748 q -1.07901,0 -1.94223,-0.47207 -0.86321,-0.48556 -1.36225,-1.36226 -0.48556,-0.8767 -0.48556,-2.02315 0,-1.14646 0.49904,-2.02316 0.51254,-0.8767 1.38924,-1.34877 0.8767,-0.48556 1.95571,-0.48556 1.07902,0 1.95572,0.48556 0.8767,0.47207 1.37575,1.34877 0.51253,0.8767 0.51253,2.02316 0,1.14645 -0.52602,2.02315 -0.51253,0.8767 -1.40272,1.36226 -0.8767,0.47207 -1.96921,0.47207 z m 0,-1.6455 q 0.51254,0 0.95763,-0.24278 0.45858,-0.25627 0.72834,-0.75531 0.26975,-0.49905 0.26975,-1.21389 0,-1.06553 -0.56648,-1.63202 -0.553,-0.57997 -1.36226,-0.57997 -0.80926,0 -1.36226,0.57997 -0.53951,0.56649 -0.53951,1.63202 0,1.06552 0.52602,1.6455 0.53951,0.56648 1.34877,0.56648 z m -24.64174,1.52411 -2.29659,-4.05631 h -0.98425 v 4.05631 h -2.08781 v -10.4092 h 3.90718 q 1.20795,0 2.05798,0.43247 0.85004,0.41756 1.2676,1.14829 0.43247,0.71582 0.43247,1.6106 0,1.02899 -0.59651,1.86411 -0.59652,0.82021 -1.77464,1.13338 l 2.49046,4.22035 z m -3.28084,-5.62216 h 1.74481 q 0.85003,0 1.26759,-0.40265 0.41757,-0.41756 0.41757,-1.1483 0,-0.71581 -0.41757,-1.10355 -0.41756,-0.40265 -1.26759,-0.40265 h -1.74481 z" /></g><g
             id="text13"
             style="font-weight:600;font-size:13.4877px;line-height:1;font-family:Poppins;-inkscape-font-specification:'Poppins Semi-Bold';letter-spacing:-0.497097px;fill:#24323b;stroke-width:0.159304;stroke-linecap:round;stroke-linejoin:round;paint-order:markers fill stroke"
             aria-label="Google"><path
               id="path111"
               style="stroke-width:0.159305;fill:#ffffff"
               d="m 77.136367,171.94123 q -1.079016,0 -1.942229,-0.47207 -0.863213,-0.48556 -1.362258,-1.36226 -0.485557,-0.8767 -0.485557,-2.02315 0,-1.14646 0.499045,-2.02316 0.512532,-0.8767 1.389233,-1.34877 0.8767,-0.48556 1.955717,-0.48556 1.079016,0 1.955716,0.48556 0.876701,0.47207 1.375746,1.34877 0.512532,0.8767 0.512532,2.02316 0,1.14645 -0.52602,2.02315 -0.512533,0.8767 -1.402721,1.36226 -0.876701,0.47207 -1.969204,0.47207 z m 0,-1.6455 q 0.512532,0 0.957626,-0.24278 0.458582,-0.25627 0.728336,-0.75531 0.269754,-0.49905 0.269754,-1.21389 0,-1.06553 -0.566483,-1.63202 -0.552996,-0.57997 -1.362258,-0.57997 -0.809262,0 -1.362258,0.57997 -0.539508,0.56649 -0.539508,1.63202 0,1.06552 0.526021,1.6455 0.539508,0.56648 1.34877,0.56648 z m 8.108062,1.6455 q -1.079016,0 -1.942228,-0.47207 -0.863213,-0.48556 -1.362258,-1.36226 -0.485557,-0.8767 -0.485557,-2.02315 0,-1.14646 0.499045,-2.02316 0.512532,-0.8767 1.389233,-1.34877 0.8767,-0.48556 1.955716,-0.48556 1.079016,0 1.955717,0.48556 0.8767,0.47207 1.375745,1.34877 0.512533,0.8767 0.512533,2.02316 0,1.14645 -0.52602,2.02315 -0.512533,0.8767 -1.402721,1.36226 -0.876701,0.47207 -1.969205,0.47207 z m 0,-1.6455 q 0.512533,0 0.957627,-0.24278 0.458582,-0.25627 0.728336,-0.75531 0.269754,-0.49905 0.269754,-1.21389 0,-1.06553 -0.566483,-1.63202 -0.552996,-0.57997 -1.362258,-0.57997 -0.809262,0 -1.362258,0.57997 -0.539508,0.56649 -0.539508,1.63202 0,1.06552 0.52602,1.6455 0.539508,0.56648 1.34877,0.56648 z m 7.71692,-6.06947 q 0.836237,0 1.470159,0.3372 0.633922,0.3237 0.99809,0.84972 v -1.06553 h 1.901766 v 7.52614 q 0,1.03855 -0.418119,1.84782 -0.418119,0.82274 -1.254356,1.29481 -0.836237,0.48556 -2.023155,0.48556 -1.591549,0 -2.616614,-0.74182 -1.011577,-0.74183 -1.146454,-2.02316 h 1.87479 q 0.148365,0.51254 0.633922,0.80927 0.499045,0.31021 1.200405,0.31021 0.82275,0 1.335282,-0.49904 0.512533,-0.48556 0.512533,-1.48365 v -1.15994 q -0.364168,0.52602 -1.011577,0.8767 -0.633922,0.35068 -1.456672,0.35068 -0.944139,0 -1.726426,-0.48556 -0.782286,-0.48556 -1.240868,-1.36226 -0.445094,-0.89018 -0.445094,-2.03664 0,-1.13297 0.445094,-2.00967 0.458582,-0.8767 1.227381,-1.34877 0.782286,-0.47207 1.739913,-0.47207 z m 2.468249,3.85749 q 0,-0.68788 -0.269754,-1.17343 -0.269754,-0.49905 -0.728336,-0.75531 -0.458582,-0.26976 -0.984602,-0.26976 -0.52602,0 -0.971114,0.25627 -0.445094,0.25626 -0.728336,0.75531 -0.269754,0.48556 -0.269754,1.15994 0,0.67439 0.269754,1.18692 0.283242,0.49904 0.728336,0.7688 0.458582,0.26975 0.971114,0.26975 0.52602,0 0.984602,-0.25626 0.458582,-0.26976 0.728336,-0.75532 0.269754,-0.49904 0.269754,-1.18691 z m 5.140752,-6.24481 v 9.9809 h -1.888276 v -9.9809 z m 8.31037,6.08295 q 0,0.40464 -0.054,0.72834 h -5.46252 q 0.0674,0.80926 0.56649,1.26784 0.49904,0.45859 1.22738,0.45859 1.05204,0 1.49713,-0.90368 h 2.03665 q -0.32371,1.07902 -1.24087,1.78038 -0.91717,0.68787 -2.25245,0.68787 -1.07901,0 -1.94223,-0.47207 -0.84972,-0.48556 -1.33528,-1.36226 -0.47207,-0.8767 -0.47207,-2.02315 0,-1.15995 0.47207,-2.03665 0.47207,-0.8767 1.32179,-1.34877 0.84973,-0.47207 1.95572,-0.47207 1.06553,0 1.90177,0.45859 0.84972,0.45858 1.3083,1.3083 0.47207,0.83624 0.47207,1.92874 z m -1.95571,-0.5395 q -0.0135,-0.72834 -0.52602,-1.15995 -0.51254,-0.44509 -1.25436,-0.44509 -0.70136,0 -1.18692,0.43161 -0.47207,0.41811 -0.57997,1.17343 z m -36.716615,-2.84005 q -0.357909,-0.65616 -0.984251,-0.99916 -0.626342,-0.343 -1.461464,-0.343 -0.9246,0 -1.640419,0.41756 -0.715819,0.41757 -1.118468,1.19304 -0.402648,0.77547 -0.402648,1.78954 0,1.04391 0.402648,1.81938 0.417562,0.77547 1.148294,1.19303 0.730732,0.41756 1.70007,0.41756 1.193032,0 1.95359,-0.62634 0.760558,-0.64126 0.999164,-1.77464 h -3.579096 v -1.59568 h 5.637077 v 1.81938 q -0.208781,1.08864 -0.894774,2.01324 -0.685994,0.9246 -1.774635,1.49129 -1.073729,0.55178 -2.41589,0.55178 -1.506203,0 -2.729061,-0.67108 -1.207945,-0.686 -1.908851,-1.89394 -0.685994,-1.20795 -0.685994,-2.74398 0,-1.53602 0.685994,-2.74397 0.700906,-1.22286 1.908851,-1.89394 1.222858,-0.68599 2.714148,-0.68599 1.759722,0 3.057144,0.86495 1.297423,0.85003 1.789548,2.40097 z" /></g></g></g></g></g></svg>
